<?xml version="1.0" encoding="utf-8"?>
<svg version="1.1" id="整体" xmlns="http://www.w3.org/2000/svg" xmlns:xlink="http://www.w3.org/1999/xlink" x="0px" y="0px"
	viewBox="0 0 2664 666" style="enable-background:new 0 0 2664 666; background-color: #ffffff" xml:space="preserve">
	<style type="text/css">
		.st0 {
			fill: none;
		}

		.st1 {
			fill: none;
			stroke: #000000;
			stroke-width: 5;
			stroke-miterlimit: 10;
		}

		.st2 {
			fill: #FF7043;
		}

		.st3 {
			fill: #514A43;
		}
	</style>
	<path class="st0" d="z" />
	<g id="天平">
		<path d="M370.3,129.2v41.9c0,86.5-1.3,176.8-1.3,263.3c0,110,91.3,176,191.8,176v34.2H148v-34.2c0,0,191.4,3.6,191.4-176
		c0-80-0.4-215.7,0.5-315" />
		<rect x="338.1" y="-71.6" transform="matrix(0.3484 -0.9373 0.9373 0.3484 102.0098 418.7697)" width="28.3"
			height="415.3" />
		<g id="托盘-2">
			<polygon class="st1" points="41.2,291.2 171.5,78.4 303.6,291.2 		" />
			<path d="M323,291.2c-59.4,59.4-242.7,59.2-301.2,0.7L323,291.2z" />
		</g>
		<g id="托盘-2_00000163787528877300344570000009473985437539716745_">
			<polygon class="st1" points="401.6,415.7 531.9,202.9 664,415.7 		" />
			<path d="M683.4,415.7c-59.4,59.4-242.6,59.3-301.2,0.7L683.4,415.7z" />
		</g>
	</g>
	<path class="st2"
		d="M529.1,301.2c0-2,1.6-3.6,3.6-3.6c2,0,3.6,1.6,3.6,3.6s-1.6,3.6-3.6,3.6S529.1,303.2,529.1,301.2 M486.6,333.4
	c0-2,1.6-3.6,3.6-3.6s3.6,1.6,3.6,3.6s-1.6,3.6-3.6,3.6S486.6,335.4,486.6,333.4 M571.6,333.6c0-2,1.6-3.6,3.6-3.6s3.6,1.6,3.6,3.6
	s-1.6,3.6-3.6,3.6C573.1,337.2,571.6,335.6,571.6,333.6L571.6,333.6 M496.9,338.5c1.6-0.7,2.4-2.6,1.7-4.3l-1.6-3.6h6.2v28h-12.6
	c-1.5-5.4-2-11.1-1.4-16.7L496.9,338.5z M522.9,339.2v-8.3h14.8c0.8,0,5.4,0.9,5.4,4.3c0,2.9-3.6,3.9-6.5,3.9L522.9,339.2z
	 M502.7,383.6c0-2,1.6-3.6,3.6-3.6s3.6,1.6,3.6,3.6s-1.6,3.6-3.6,3.6S502.7,385.6,502.7,383.6 M555.4,383.8c0-2,1.6-3.6,3.6-3.6
	s3.6,1.6,3.6,3.6s-1.6,3.6-3.6,3.6S555.4,385.8,555.4,383.8 M556.6,375.7c-1.8-0.4-3.5,0.7-3.9,2.5l-1.8,8.3
	c-11.6,5.3-25,5.2-36.6-0.2l-1.7-8.3c-0.4-1.8-2.1-2.9-3.9-2.5l-7.4,1.6c-1.4-1.4-2.6-2.9-3.8-4.5h35.8c0.4,0,0.7-0.1,0.7-0.4v-12.7
	c0-0.4-0.3-0.4-0.7-0.4h-10.5v-8h11.3c1,0,5.5,0.3,7,6c0.5,1.8,1.4,7.5,2.1,9.4c0.7,2.1,3.4,6.2,6.3,6.2H568
	c-1.2,1.7-2.6,3.2-4.1,4.7L556.6,375.7z M576.4,342.3c0.3,2.5,0.3,5.1,0.1,7.6H572c-0.5,0-0.6,0.3-0.6,0.7v2.1
	c0,4.9-2.7,5.9-5.1,6.2c-2.3,0.3-4.8-1-5.1-2.4c-1.3-7.6-3.6-9.2-7.2-12c4.4-2.8,9-6.9,9-12.5c0-6-4.1-9.7-6.9-11.6
	c-3.9-2.6-8.2-3.1-9.4-3.1h-46.5c6.4-7.2,15.1-12.1,24.5-13.8l5.5,5.8c1.2,1.3,3.3,1.3,4.6,0.1l6.1-5.9c12.7,2.4,23.6,10.2,30,21.4
	l-4.2,9.5c-0.7,1.6,0,3.6,1.7,4.3L576.4,342.3z M586.9,342.4l-0.1-1.5l4.3-4c0.9-0.8,0.6-2.5-0.6-2.9l-5.5-2.1l-0.4-1.4l3.5-4.8
	c0.7-1,0.1-2.5-1.1-2.7l-5.8-0.9l-0.7-1.3l2.5-5.4c0.5-1.1-0.4-2.5-1.6-2.5l-5.9,0.2l-0.9-1.1l1.4-5.8c0.3-1.2-0.9-2.4-2.1-2.1
	l-5.8,1.4l-1.1-0.9l0.2-5.9c0-1.2-1.4-2.1-2.4-1.6l-5.4,2.5l-1.3-0.7l-1-5.8c-0.2-1.2-1.7-1.8-2.7-1.1l-4.8,3.5l-1.4-0.4l-2.1-5.5
	c-0.4-1.1-2.1-1.5-2.9-0.6l-4,4.3l-1.5-0.1l-3.1-5c-0.6-1-2.3-1-2.9,0l-3.1,5l-1.5,0.1l-4-4.3c-0.8-0.9-2.5-0.6-2.9,0.6l-2.1,5.5
	l-1.4,0.4l-4.8-3.5c-1-0.7-2.5-0.1-2.7,1.1l-1,5.8l-1.3,0.7l-5.4-2.5c-1.1-0.5-2.5,0.4-2.4,1.6l0.2,5.9l-1.1,0.9l-5.8-1.4
	c-1.2-0.3-2.4,0.9-2.1,2.1l1.4,5.8l-0.9,1.1l-5.9-0.2c-1.2,0-2.1,1.4-1.6,2.5l2.5,5.4l-0.7,1.3l-5.8,0.9c-1.2,0.2-1.8,1.7-1.1,2.7
	l3.5,4.8l-0.4,1.4l-5.5,2.1c-1.1,0.4-1.5,2.1-0.6,2.9l4.3,4l-0.1,1.5l-5,3.1c-1,0.6-1,2.3,0,2.9l5,3.1l0.1,1.5l-4.3,4
	c-0.9,0.8-0.5,2.5,0.6,2.9l5.5,2.1l0.4,1.4l-3.5,4.8c-0.7,1-0.1,2.5,1.1,2.7l5.8,0.9l0.7,1.3l-2.5,5.4c-0.5,1.1,0.4,2.5,1.6,2.5
	l5.9-0.2l0.9,1.1l-1.4,5.8c-0.3,1.2,0.9,2.4,2.1,2.1l5.8-1.4l1.1,0.9l-0.2,5.9c0,1.2,1.4,2.1,2.4,1.6l5.4-2.5l1.3,0.7l1,5.8
	c0.2,1.2,1.7,1.8,2.7,1.1l4.8-3.5l1.4,0.4l2.1,5.5c0.4,1.1,2.1,1.5,2.9,0.6l4-4.3l1.5,0.1l3.1,5c0.6,1,2.3,1,2.9,0l3.1-5l1.5-0.1
	l4,4.3c0.8,0.9,2.5,0.5,2.9-0.6l2.1-5.5l1.4-0.4l4.8,3.5c1,0.7,2.5,0.1,2.7-1.1l1-5.8l1.3-0.7l5.4,2.5c1.1,0.5,2.5-0.4,2.4-1.6
	l-0.2-5.9l1.1-0.9l5.8,1.4c1.2,0.3,2.4-0.9,2.1-2.1l-1.4-5.8l0.9-1.1l5.9,0.2c1.2,0,2.1-1.4,1.6-2.5l-2.5-5.4l0.7-1.3l5.8-0.9
	c1.2-0.2,1.8-1.7,1.1-2.7l-3.5-4.8l0.4-1.4l5.5-2.1c1.1-0.4,1.5-2.1,0.6-2.9l-4.3-4l0.1-1.5l5-3.1c1-0.6,1-2.3,0-2.9L586.9,342.4z" />
	<path class="st0" d="z" />
	<rect x="851.4" y="298.4" class="st0" width="95.6" height="0" />
	<g>
		<path class="st3" d="M733.6,209.9h51.2l72.9,128.8l25.1,52.2h1.7c-2.4-25.1-6.4-57-6.4-84.4v-96.5h47.5v241.6h-50.9l-72.6-129.1
		l-25.4-51.8H775c2.4,26.1,6.1,56.4,6.1,84.1v96.8h-47.5V209.9z" />
		<path class="st3" d="M1035.7,209.9h59l80.7,241.6h-52.6l-17.6-61.9h-81.4l-17.6,61.9h-50.9L1035.7,209.9z M1034.7,352.1h59.7
		l-7.5-26.4c-7.8-25.1-14.6-52.8-21.7-78.9h-1.7c-6.4,26.4-13.9,53.8-21.4,78.9L1034.7,352.1z" />
		<path class="st3" d="M1204.9,209.9h87.5c52.6,0,94.3,17.9,94.3,73.3c0,36.2-19,58.7-47.8,69.4l58.7,98.8h-56l-51.5-91.3h-34.9v91.3
		h-50.2V209.9z M1287.7,322.1c32.2,0,50.2-13,50.2-38.8c0-26.1-18-34.9-50.2-34.9h-32.6v73.7H1287.7z" />
		<path class="st3" d="M1430.1,383V268.9h49.9v107.9c0,28,8.1,38.1,26.5,38.1c15.6,0,25.8-6.5,38.7-22.8V268.9h49.9v182.6h-40.7
		l-3.7-26.1h-1.4c-16.3,18.6-34.6,30.6-60.4,30.6C1447.8,456.1,1430.1,428.7,1430.1,383z" />
		<path class="st3" d="M1630.2,430.3l22.7-30c17,12.7,33.2,19.9,50.9,19.9c19,0,27.5-7.8,27.5-19.2c0-13.7-19.7-19.9-39.7-27.4
		c-24.1-8.8-50.9-22.8-50.9-53.5c0-32.6,27.5-55.7,70.9-55.7c27.5,0,48.8,11.1,64.4,22.5l-22.4,29c-13.6-9.5-26.8-15.6-40.7-15.6
		c-17.3,0-25.4,7.2-25.4,17.6c0,13.4,17.6,18.3,37.6,25.4c25.1,9.1,52.9,21.2,52.9,55.1c0,31.9-26.1,57.7-75.6,57.7
		C1677,456.1,1649.2,445.3,1630.2,430.3z" />
		<path class="st3" d="M1815.4,387.6v-80.8h-26.8v-35.5l29.5-2.3l5.8-49.2h41.4v49.2h46.8v37.8h-46.8v80.8c0,20.9,8.8,30.6,25.8,30.6
		c6.1,0,13.6-2,18.7-3.9l8.1,34.9c-10.2,3.3-23.4,6.8-40,6.8C1832.7,456.1,1815.4,428.4,1815.4,387.6z" />
		<path class="st3"
			d="M2028.7,412.7h53.9V266.3h-45.4v-29.7c25.1-4.6,42.4-10.8,58.3-20.2h37v196.2h47.1v38.8h-150.9V412.7z" />
		<path class="st3" d="M2209.4,423.1l23.1-30.6c14.2,13.4,31.9,24.4,55.3,24.4c26.1,0,44.4-14.7,44.4-41.1c0-26.1-17-40.7-42.4-40.7
		c-14.9,0-23.1,3.6-37.6,12.7l-22.7-14l6.8-117.4h134.3v40.1h-91.2l-4.7,51.2c10.2-4.2,18.7-6.5,30.2-6.5c42.1,0,77.3,22.8,77.3,73
		c0,51.8-41.4,81.8-87.8,81.8C2254.5,456.1,2228.1,441.1,2209.4,423.1z" />
		<path class="st3" d="M2416.3,391.5c0-29,20-47.6,43.1-59.3v-1.3c-19-13.4-33.2-30.6-33.2-55.4c0-38.8,32.2-63.6,75.6-63.6
		c44.4,0,72.9,25.4,72.9,63.9c0,23.1-16.3,42.1-32.2,52.8v1.6c22.7,12.4,42.1,29.7,42.1,61.3c0,36.5-33.6,64.5-84.4,64.5
		C2452.2,456.1,2416.3,429.3,2416.3,391.5z M2538,389.9c0-23.5-23.4-31.9-55.6-44.7c-13.2,10.1-23.1,24.4-23.1,41.1
		c0,21.8,18.7,35.9,42.1,35.9C2522.8,422.2,2538,410.8,2538,389.9z M2534,279.1c0-19.6-12.2-33.3-33.2-33.3
		c-17,0-30.5,10.4-30.5,29.7c0,21.5,19.7,31.6,45.8,41.4C2527.5,305.1,2534,292.4,2534,279.1z" />
	</g>
</svg>